<svg width="15" height="20" viewBox="0 0 15 20" fill="none" xmlns="http://www.w3.org/2000/svg">
<path d="M3.37876 4.66725C3.25904 3.2454 3.62109 2.01561 4.70838 1.0486C5.46445 0.357983 6.47002 -0.0188984 7.5098 -0.00136785C8.77093 0.0075396 9.82485 0.481861 10.6485 1.40601C11.4722 2.33016 11.722 3.43802 11.6207 4.66224H12.0869C13.4545 4.66224 14.4002 5.51902 14.4687 6.83788C14.5839 9.00128 14.6806 11.1658 14.7865 13.3292C14.8573 14.7766 14.9419 16.228 14.9983 17.6777C15.0415 18.7961 14.3484 19.6819 13.2658 19.9341C13.0699 19.9768 12.8696 19.9973 12.6689 19.9953C9.22296 19.9986 5.77688 19.9986 2.3306 19.9953C0.943418 19.9953 -0.0489086 19.0199 0.00174371 17.676C0.0627568 16.046 0.154853 14.4164 0.234861 12.7869C0.314676 11.171 0.395644 9.55502 0.477762 7.93906C0.50021 7.48868 0.512873 7.03663 0.558345 6.58791C0.665981 5.53016 1.60017 4.69508 2.69726 4.66391C2.9108 4.66168 3.12492 4.66725 3.37876 4.66725ZM10.2352 4.66057C10.4148 3.37288 9.91003 2.27115 8.88547 1.69216C8.41484 1.42534 7.87254 1.30055 7.32809 1.33378C6.78365 1.36701 6.26187 1.55674 5.82964 1.87866C4.85113 2.61519 4.63356 3.60893 4.7763 4.66224L10.2352 4.66057ZM3.6159 7.46808C3.61818 7.6434 3.6921 7.81073 3.82152 7.93351C3.95094 8.05628 4.12534 8.12453 4.30662 8.12334C4.48793 8.12102 4.66111 8.05017 4.78912 7.92595C4.91712 7.80173 4.98979 7.63399 4.99158 7.45862C4.98945 7.27956 4.91394 7.10864 4.78163 6.98339C4.64932 6.85813 4.47103 6.78878 4.2859 6.79056C4.10472 6.79595 3.93299 6.87 3.80776 6.99675C3.68253 7.1235 3.61383 7.29278 3.61648 7.46808H3.6159ZM11.3813 7.45862C11.3826 7.28286 11.3118 7.11377 11.1843 6.9885C11.0569 6.86323 10.8832 6.79203 10.7015 6.79056C10.5164 6.79115 10.3392 6.86269 10.2087 6.98949C10.0781 7.1163 10.0049 7.28801 10.005 7.46697C10.0098 7.64257 10.0853 7.80943 10.2154 7.93202C10.3454 8.05461 10.5199 8.12325 10.7015 8.12334C10.7913 8.12312 10.8803 8.10573 10.9632 8.07216C11.0461 8.0386 11.1213 7.98952 11.1845 7.92775C11.2477 7.86598 11.2977 7.79274 11.3316 7.71223C11.3654 7.63172 11.3825 7.54553 11.3818 7.45862H11.3813Z" fill="#631CFB"/>
</svg>
