<svg width="41" height="40" viewBox="0 0 41 40" fill="none" xmlns="http://www.w3.org/2000/svg">
<path d="M27.7536 0C28.8281 0.228452 29.7876 0.819648 30.4658 1.67119C31.0455 2.2826 31.6667 2.87363 32.2981 3.49523C32.6789 2.71501 33.3365 2.09885 34.1469 1.76287C34.9573 1.42688 35.8646 1.39427 36.6977 1.67119C37.3521 1.83924 37.9383 2.20104 38.3771 2.70768C38.8159 3.21432 39.0861 3.84137 39.1511 4.50405C39.2822 5.25846 39.1589 6.03439 38.8 6.71335C38.4412 7.39232 37.8664 7.937 37.1635 8.26422L38.0434 9.15076C38.2471 9.33763 38.4406 9.53491 38.6231 9.74179C38.7505 9.88191 38.8208 10.0633 38.8208 10.2513C38.8208 10.4393 38.7505 10.6207 38.6231 10.7608C38.4953 10.9035 38.3167 10.9926 38.1241 11.0097C37.9315 11.0267 37.7397 10.9705 37.5879 10.8525C36.9369 10.2847 36.328 9.67175 35.766 9.01829C35.6423 8.84741 35.5594 8.65128 35.5233 8.4445C35.4872 8.23771 35.499 8.02558 35.5577 7.82388C35.6164 7.62217 35.7205 7.43608 35.8623 7.27944C36.0041 7.12281 36.18 6.99965 36.3768 6.91912C36.7421 6.77699 37.0566 6.53203 37.2813 6.21485C37.5059 5.89768 37.6306 5.52238 37.6397 5.13584C37.6752 4.68205 37.5489 4.23026 37.2825 3.85827C37.016 3.48628 36.6262 3.21736 36.1801 3.09781C35.7454 2.97373 35.281 2.9978 34.862 3.16611C34.443 3.33443 34.094 3.63712 33.8716 4.02511L33.7474 4.26968C33.6488 4.48881 33.4964 4.6804 33.304 4.82724C33.1116 4.97409 32.8852 5.07159 32.645 5.11099C32.4049 5.15039 32.1585 5.13045 31.9281 5.05297C31.6977 4.97549 31.4905 4.8429 31.325 4.66709C30.5176 3.90283 29.7308 3.108 28.9337 2.32336C28.7401 2.07977 28.4926 1.88276 28.2101 1.74728C27.9277 1.6118 27.6176 1.54139 27.3033 1.54139C26.9891 1.54139 26.679 1.6118 26.3965 1.74728C26.114 1.88276 25.8666 2.07977 25.6729 2.32336L23.4058 4.56519C24.123 4.90396 24.7042 5.46931 25.0569 6.17111C25.4097 6.87292 25.5135 7.67077 25.352 8.43745C25.26 9.12947 24.9448 9.77418 24.4529 10.2768C23.9609 10.7794 23.3182 11.1133 22.6191 11.2296C21.8292 11.4255 20.9949 11.3482 20.256 11.0105C19.5172 10.6729 18.9188 10.0954 18.5611 9.37495C17.6916 10.2207 16.8013 11.0359 15.9732 11.9021C15.6603 12.249 15.4875 12.6967 15.4875 13.1606C15.4875 13.6245 15.6603 14.0722 15.9732 14.4191C16.8117 15.3056 17.733 16.131 18.6232 16.987C18.9725 16.2801 19.5542 15.7102 20.2739 15.3699C20.9937 15.0295 21.8092 14.9386 22.588 15.112C23.2913 15.2109 23.9437 15.5298 24.4488 16.0215C24.9539 16.5132 25.2851 17.1518 25.3934 17.843C25.5735 18.6174 25.4785 19.4291 25.1244 20.143C24.7703 20.8569 24.1783 21.4298 23.4472 21.7662C24.3064 22.6425 25.1346 23.5597 26.0456 24.3851C26.4315 24.7035 26.9268 24.8642 27.4295 24.8338C27.9322 24.8035 28.4039 24.5845 28.7474 24.222C29.5652 23.4374 30.383 22.6629 31.1491 21.8375C31.3223 21.631 31.5474 21.4725 31.802 21.3778C32.0566 21.2832 32.3318 21.2556 32.6006 21.2978C32.8693 21.34 33.1222 21.4505 33.3343 21.6185C33.5463 21.7864 33.7101 22.0059 33.8095 22.2553C33.988 22.6535 34.301 22.9787 34.6954 23.1756C35.0897 23.3725 35.5412 23.429 35.973 23.3355C36.3756 23.256 36.745 23.0605 37.0344 22.7738C37.3238 22.4871 37.5201 22.1222 37.5983 21.7254C37.6685 21.3004 37.6002 20.8643 37.403 20.4799C37.2059 20.0954 36.8901 19.7823 36.501 19.5855C36.2416 19.4982 36.0115 19.3426 35.8356 19.1357C35.6597 18.9288 35.5447 18.6784 35.5031 18.4117C35.4615 18.145 35.4949 17.8721 35.5996 17.6228C35.7044 17.3734 35.8765 17.1571 36.0973 16.9972C36.532 16.559 36.9668 16.1208 37.412 15.6929C37.4799 15.6041 37.5663 15.5306 37.6653 15.4772C37.7643 15.4238 37.8737 15.3917 37.9862 15.383C38.0988 15.3743 38.2119 15.3893 38.3181 15.4269C38.4244 15.4645 38.5213 15.5239 38.6024 15.6011C38.6874 15.6799 38.7538 15.776 38.7969 15.8828C38.84 15.9896 38.8588 16.1044 38.8519 16.219C38.845 16.3337 38.8126 16.4455 38.7569 16.5465C38.7013 16.6475 38.6238 16.7353 38.53 16.8036C38.0848 17.2519 37.6293 17.6799 37.1635 18.1385C37.9199 18.4878 38.5285 19.0864 38.8839 19.8308C39.2393 20.5751 39.3192 21.4184 39.1097 22.2146C38.9851 22.8962 38.6447 23.5216 38.137 24.0012C37.6294 24.4808 36.9806 24.7899 36.2836 24.8844C35.4982 25.0441 34.681 24.939 33.9637 24.586C33.2463 24.2329 32.6706 23.6524 32.3292 22.9381C31.6149 23.6412 30.8903 24.3137 30.2588 24.9761C29.8585 25.446 29.3501 25.8151 28.7757 26.0526C28.2013 26.2901 27.5776 26.3892 26.9565 26.3416C26.9565 26.6269 26.9565 26.8918 26.9565 27.1568C26.8686 27.9652 26.5034 28.7199 25.9213 29.2967L23.4265 31.7525C23.2585 31.939 23.045 32.0803 22.8061 32.1631C22.5673 32.2458 22.3109 32.2673 22.0613 32.2255C21.8116 32.1837 21.5769 32.0799 21.3793 31.9241C21.1817 31.7683 21.0277 31.5654 20.9317 31.3347C20.7328 30.9129 20.3934 30.5707 19.9697 30.365C19.546 30.1592 19.0636 30.1023 18.6025 30.2036C18.2 30.2831 17.8305 30.4787 17.5411 30.7653C17.2518 31.052 17.0555 31.4169 16.9773 31.8137C16.9043 32.2542 16.9802 32.7062 17.1934 33.1001C17.4066 33.4941 17.7452 33.8083 18.1574 33.9944C18.3923 34.0888 18.5987 34.241 18.7566 34.4365C18.9146 34.632 19.0189 34.8642 19.0594 35.1108C19.0999 35.3573 19.0754 35.61 18.9881 35.8446C18.9009 36.0792 18.7538 36.2877 18.5611 36.4502C17.7537 37.2654 16.9359 38.0806 16.0974 38.8755C15.7592 39.2222 15.3534 39.4981 14.9042 39.6866C14.455 39.8751 13.9718 39.9722 13.4835 39.9722C12.9952 39.9722 12.512 39.8751 12.0628 39.6866C11.6136 39.4981 11.2078 39.2222 10.8697 38.8755C10.0415 38.0806 9.22371 37.2654 8.40591 36.4502C8.21348 36.287 8.06696 36.0777 7.98045 35.8426C7.89394 35.6075 7.87033 35.3544 7.91193 35.1078C7.95352 34.8611 8.05891 34.6291 8.21794 34.4341C8.37697 34.2391 8.58429 34.0877 8.81998 33.9944C9.23217 33.8062 9.57002 33.4897 9.78142 33.0938C9.99282 32.6978 10.066 32.2444 9.98975 31.8035C9.90899 31.4072 9.71038 31.0436 9.41914 30.7587C9.12791 30.4738 8.7572 30.2806 8.35415 30.2036C7.90732 30.1233 7.44603 30.1944 7.04556 30.4054C6.64509 30.6164 6.32909 30.9548 6.14918 31.3653C6.05108 31.5945 5.89539 31.7954 5.69675 31.9492C5.4981 32.1029 5.26303 32.2044 5.01359 32.2441C4.76416 32.2839 4.50856 32.2605 4.2708 32.1763C4.03304 32.0921 3.82092 31.9498 3.65438 31.7627C2.82623 30.9679 2.01878 30.1731 1.21133 29.3579C0.853653 29.0228 0.568874 28.6197 0.374284 28.173C0.179694 27.7263 0.0793457 27.2454 0.0793457 26.7594C0.0793457 26.2733 0.179694 25.7924 0.374284 25.3457C0.568874 24.899 0.853653 24.4959 1.21133 24.1609C1.90491 23.4679 2.61919 22.7852 3.28172 22.1228L3.56121 21.8375C2.82661 21.4916 2.23418 20.9089 1.8821 20.1861C1.53002 19.4633 1.43946 18.6438 1.6254 17.8634C1.73834 17.1741 2.07099 16.5381 2.57528 16.0471C3.07957 15.5562 3.72938 15.2359 4.43078 15.1324C5.22096 14.9613 6.0468 15.061 6.77158 15.4149C7.49637 15.7689 8.07661 16.3559 8.41625 17.0787C9.13054 16.3654 9.85517 15.703 10.4866 15.0407C10.8869 14.5707 11.3954 14.2017 11.9697 13.9642C12.5441 13.7267 13.1678 13.6276 13.7889 13.6752C13.7729 13.4003 13.7729 13.1247 13.7889 12.8498C13.8775 12.0446 14.2427 11.2932 14.8241 10.72C15.6522 9.90483 16.4804 9.07943 17.3189 8.26422C17.4858 8.07749 17.6984 7.93592 17.9366 7.85297C18.1748 7.77002 18.4306 7.74846 18.6796 7.79034C18.9287 7.83222 19.1627 7.93614 19.3594 8.09222C19.5561 8.2483 19.7089 8.45134 19.8034 8.68201C19.9941 9.08584 20.3139 9.41706 20.714 9.62501C21.1141 9.83296 21.5723 9.90619 22.0187 9.83351C22.4231 9.75583 22.7948 9.56112 23.0862 9.2743C23.3776 8.98747 23.5754 8.62158 23.6543 8.22346C23.7273 7.78292 23.6514 7.33095 23.4382 6.93699C23.225 6.54304 22.8863 6.22888 22.4741 6.04277C22.2392 5.94838 22.0329 5.79614 21.8749 5.60064C21.717 5.40514 21.6127 5.17296 21.5722 4.92637C21.5316 4.67979 21.5562 4.4271 21.6434 4.19254C21.7307 3.95798 21.8777 3.74944 22.0704 3.58694C22.8675 2.78191 23.6957 1.99727 24.5031 1.18206C25.0786 0.636565 25.7945 0.256044 26.5735 0.0815193L27.7536 0ZM17.3086 35.2987C16.6059 34.9534 16.0408 34.3866 15.7032 33.6886C15.3655 32.9906 15.2747 32.2015 15.4452 31.4468C15.5557 30.7522 15.89 30.1108 16.3988 29.6173C16.9076 29.1238 17.564 28.8042 18.2713 28.7057C19.0581 28.5309 19.8819 28.6242 20.6078 28.9704C21.3338 29.3166 21.9188 29.8951 22.2671 30.6112L24.6273 28.2879C24.8477 28.0966 25.0241 27.8614 25.1449 27.5979C25.2658 27.3344 25.3283 27.0485 25.3283 26.7594C25.3283 26.4702 25.2658 26.1844 25.1449 25.9208C25.0241 25.6573 24.8477 25.4221 24.6273 25.2308L22.2775 22.9177C22.0675 22.7555 21.9053 22.5413 21.8075 22.2969C21.7097 22.0526 21.6798 21.7869 21.7209 21.5274C21.762 21.2679 21.8727 21.0239 22.0415 20.8205C22.2103 20.6171 22.4311 20.4616 22.6812 20.3701C23.0818 20.1785 23.409 19.8648 23.6141 19.4757C23.8192 19.0865 23.8914 18.6426 23.8199 18.2098C23.7391 17.8136 23.5405 17.4499 23.2493 17.165C22.9581 16.8801 22.5874 16.6869 22.1843 16.61C21.7464 16.5271 21.2929 16.5916 20.8968 16.793C20.5006 16.9945 20.1848 17.3212 20 17.7207C19.9055 17.9668 19.7463 18.1838 19.5387 18.3496C19.3311 18.5154 19.0826 18.624 18.8185 18.6644C18.5543 18.7048 18.2841 18.6755 18.0352 18.5796C17.7863 18.4836 17.5677 18.3244 17.4017 18.1181C16.615 17.3538 15.8386 16.5692 15.0518 15.8049C14.8575 15.5881 14.6186 15.4144 14.3509 15.2954C14.0832 15.1765 13.7928 15.1149 13.499 15.1149C13.2053 15.1149 12.9149 15.1765 12.6472 15.2954C12.3795 15.4144 12.1405 15.5881 11.9463 15.8049L9.64813 18.0672C9.48641 18.2897 9.26544 18.4641 9.00956 18.5711C8.75367 18.678 8.47278 18.7134 8.19777 18.6734C7.92276 18.6334 7.66429 18.5194 7.4508 18.3442C7.23731 18.1689 7.07707 17.9391 6.9877 17.6799C6.78719 17.3005 6.46649 16.9957 6.0742 16.8118C5.68191 16.628 5.23943 16.575 4.81379 16.6609C4.40709 16.7311 4.03244 16.9235 3.7414 17.2119C3.45036 17.5002 3.25722 17.8702 3.18854 18.271C3.1183 18.696 3.18667 19.1321 3.3838 19.5165C3.58094 19.901 3.89673 20.2141 4.28585 20.4109C4.54521 20.4982 4.77533 20.6538 4.95125 20.8607C5.12717 21.0676 5.24216 21.318 5.28376 21.5847C5.32537 21.8514 5.29198 22.1242 5.18724 22.3736C5.08249 22.6229 4.91038 22.8393 4.68958 22.9992C3.89248 23.794 3.07467 24.5787 2.28793 25.3735C1.92325 25.7063 1.70102 26.1634 1.66641 26.6517C1.6318 27.1401 1.78741 27.6231 2.1016 28.0026C2.9401 28.9095 3.89247 29.7145 4.78274 30.5705C5.13197 29.8841 5.70224 29.331 6.40452 28.9973C7.1068 28.6636 7.90156 28.5682 8.66471 28.7261C9.36215 28.8179 10.0122 29.1247 10.5217 29.6025C11.0312 30.0802 11.374 30.7044 11.5011 31.3857C11.7061 32.1676 11.6306 32.9951 11.2873 33.7285C10.944 34.4619 10.354 35.0562 9.61708 35.4108C10.4763 36.277 11.3044 37.1431 12.1947 37.9685C12.5403 38.2736 12.9882 38.4423 13.4525 38.4423C13.9167 38.4423 14.3646 38.2736 14.7102 37.9685C15.6212 37.1533 16.4493 36.226 17.3086 35.2987Z" fill="black"/>
<path d="M40.6832 13.339C40.4658 13.5326 40.2795 13.7975 40.0311 13.8892C39.942 13.9158 39.8485 13.9248 39.756 13.9155C39.6634 13.9063 39.5736 13.8791 39.4918 13.8355C39.41 13.7919 39.3377 13.7328 39.2793 13.6616C39.2208 13.5903 39.1772 13.5084 39.1511 13.4205C39.087 13.2496 39.0861 13.062 39.1486 12.8905C39.211 12.7191 39.3329 12.5748 39.4928 12.483C39.658 12.3856 39.8531 12.3496 40.0429 12.3814C40.2327 12.4131 40.4047 12.5106 40.528 12.6562C40.5961 12.7509 40.6583 12.8496 40.7143 12.9518L40.6832 13.339Z" fill="black"/>
</svg>
