<svg width="21" height="20" viewBox="0 0 21 20" fill="none" xmlns="http://www.w3.org/2000/svg">
<path d="M21 4.51875C20.8625 5.0439 20.7187 5.56904 20.5874 6.10044C20.0956 8.10516 19.5996 10.112 19.0995 12.1209C19.0896 12.2308 19.0574 12.3375 19.0049 12.4346C18.9523 12.5316 18.8806 12.617 18.7941 12.6854C18.7075 12.7539 18.6079 12.804 18.5013 12.8326C18.3947 12.8613 18.2835 12.868 18.1742 12.8523H6.21467C6.10353 12.8699 5.98994 12.8642 5.8811 12.8357C5.77226 12.8071 5.67056 12.7562 5.5824 12.6863C5.49425 12.6164 5.42157 12.5289 5.36899 12.4294C5.3164 12.3299 5.28505 12.2206 5.27691 12.1083C4.44335 8.68656 3.62645 5.26895 2.82623 1.85551C2.75746 1.56793 2.75746 1.56794 2.45738 1.56794C1.89472 1.56794 1.32582 1.56794 0.75691 1.56794C0.571285 1.56202 0.393833 1.49019 0.25636 1.36532C0.118887 1.24045 0.0303921 1.07071 0.00671425 0.886502C-0.01789 0.701502 0.0256193 0.513859 0.129143 0.358574C0.232666 0.203289 0.389133 0.0909577 0.569366 0.0425154C0.666793 0.0142819 0.768057 0.00162387 0.869436 0.00500662H3.28887C3.49318 -0.0181329 3.69844 0.03953 3.86081 0.165688C4.02318 0.291846 4.12978 0.476489 4.15785 0.680185L4.78302 3.34968C4.78302 3.4122 4.82053 3.48097 4.83929 3.56224H20.0122C20.2328 3.53419 20.4559 3.58997 20.6374 3.71853C20.7619 3.86882 20.8728 4.02992 20.9687 4.19991L21 4.51875ZM5.22689 5.14393L6.68979 11.2769H17.5115C17.5376 11.2813 17.5644 11.2802 17.59 11.2736C17.6156 11.2669 17.6395 11.255 17.6602 11.2384C17.6809 11.2219 17.6978 11.2012 17.7099 11.1776C17.722 11.1541 17.729 11.1283 17.7303 11.1018C18.0804 9.67643 18.4305 8.25727 18.7869 6.83188C18.9244 6.26922 19.062 5.70657 19.2058 5.13141L5.22689 5.14393Z" fill="white"/>
<path d="M9.74692 16.5909C9.74859 17.2818 9.47657 17.9452 8.99037 18.4361C8.50417 18.927 7.84336 19.2054 7.15246 19.2103C6.80853 19.2145 6.46718 19.1505 6.14809 19.0221C5.829 18.8937 5.53847 18.7035 5.29323 18.4623C5.048 18.2212 4.85291 17.9338 4.71921 17.6169C4.58551 17.3 4.51585 16.9598 4.51423 16.6159C4.51176 16.2722 4.5771 15.9314 4.70654 15.613C4.83598 15.2946 5.02696 15.0048 5.26854 14.7603C5.51013 14.5159 5.79757 14.3214 6.1144 14.1882C6.43123 14.055 6.77124 13.9855 7.11495 13.9839C7.80918 13.9822 8.47581 14.2556 8.96904 14.7441C9.46227 15.2327 9.74196 15.8967 9.74692 16.5909ZM8.17149 16.5909C8.17154 16.3155 8.06345 16.0512 7.87052 15.8548C7.67759 15.6583 7.41523 15.5455 7.13994 15.5406C7.00149 15.5398 6.86425 15.5663 6.7361 15.6187C6.60795 15.6711 6.49143 15.7484 6.39324 15.846C6.29505 15.9436 6.21712 16.0597 6.16395 16.1875C6.11078 16.3153 6.08341 16.4524 6.08342 16.5909C6.08666 16.8668 6.1977 17.1304 6.3928 17.3255C6.58789 17.5206 6.85156 17.6317 7.12744 17.6349C7.40012 17.6301 7.66039 17.5201 7.85381 17.3279C8.04723 17.1356 8.15882 16.876 8.16523 16.6034L8.17149 16.5909Z" fill="white"/>
<path d="M14.0106 16.6032C14.0106 15.9101 14.2859 15.2455 14.776 14.7554C15.2661 14.2653 15.9308 13.99 16.6238 13.99C17.3148 13.99 17.9776 14.2636 18.4673 14.751C18.957 15.2383 19.2338 15.8998 19.2371 16.5907C19.2395 16.9346 19.1739 17.2757 19.044 17.5941C18.9141 17.9126 18.7225 18.2022 18.4802 18.4463C18.2378 18.6903 17.9496 18.884 17.6321 19.0162C17.3146 19.1484 16.974 19.2164 16.6301 19.2164C16.2862 19.2181 15.9453 19.1517 15.6272 19.021C15.309 18.8903 15.0199 18.698 14.7764 18.4551C14.5329 18.2122 14.3399 17.9235 14.2085 17.6057C14.077 17.2878 14.0098 16.9471 14.0106 16.6032ZM15.5861 16.6032C15.5844 16.878 15.6911 17.1423 15.883 17.3389C16.0749 17.5355 16.3366 17.6486 16.6113 17.6535C16.8905 17.6552 17.1589 17.5463 17.3581 17.3507C17.5572 17.1551 17.6708 16.8886 17.6741 16.6095C17.6741 16.3303 17.5637 16.0625 17.3669 15.8646C17.1701 15.6666 16.903 15.5546 16.6238 15.5529C16.3491 15.5546 16.0861 15.6644 15.8918 15.8587C15.6976 16.053 15.5877 16.316 15.5861 16.5907V16.6032Z" fill="white"/>
</svg>
