<svg width="35" height="35" viewBox="0 0 35 35" fill="none" xmlns="http://www.w3.org/2000/svg">
<g clip-path="url(#clip0_0_413)">
<path d="M34.2549 0.557256C34.0231 0.344762 33.7461 0.186932 33.4445 0.0955197C33.1428 0.00410794 32.8243 -0.0185296 32.5126 0.0292919C28.3286 0.474691 24.2475 1.60454 20.4348 3.37307C18.2724 4.57555 16.2853 6.06566 14.5288 7.80211C14.2574 8.08407 13.8875 8.25202 13.4952 8.27141C11.0498 8.49547 8.67218 9.19299 6.49661 10.3246C4.87864 11.1316 3.39475 12.1801 2.09663 13.4337C1.82334 13.7288 1.63521 14.0915 1.55206 14.4838C1.46891 14.8762 1.49382 15.2835 1.62415 15.6629C1.75466 16.0377 1.98605 16.3698 2.29321 16.6232C2.60036 16.8766 2.97154 17.0415 3.36642 17.1001L6.31943 17.5108C6.30018 17.8125 6.34548 18.1149 6.45237 18.398C6.55925 18.6812 6.72529 18.9386 6.93956 19.1533L15.5919 27.7474C15.806 27.9615 16.0657 28.1253 16.3518 28.2268C16.638 28.3283 16.9433 28.3649 17.2456 28.3341L17.659 31.2672C17.7154 31.6681 17.8835 32.0454 18.1444 32.3564C18.4053 32.6674 18.7486 32.8997 19.1355 33.0271H19.8442C20.131 33.0296 20.4152 32.9736 20.6793 32.8626C20.9435 32.7516 21.1818 32.5879 21.3798 32.3818C24.3364 29.352 26.16 25.4084 26.5475 21.2065C26.579 20.8054 26.7576 20.4296 27.0495 20.1506C28.9639 18.1774 30.6027 15.9577 31.922 13.5511C33.7807 10.0255 34.7915 6.12 34.875 2.14115C34.8877 1.84888 34.8392 1.55717 34.7324 1.28451C34.6257 1.01186 34.463 0.764204 34.2549 0.557256ZM29.6186 12.2898C28.4308 14.4978 26.9401 16.5313 25.1891 18.3321C24.4566 19.0532 24.0064 20.0098 23.9193 21.0306C23.746 22.9232 23.2361 24.7704 22.4133 26.4862C21.7912 27.7134 21.0282 28.865 20.1395 29.918L19.667 26.4275C19.6233 26.1527 19.5076 25.8941 19.3313 25.6779C19.155 25.4616 18.9245 25.2953 18.663 25.1956L17.6885 24.961L17.0979 25.4889L9.15431 17.6574L9.71539 16.8655L9.00667 15.2523L4.69528 14.6363C5.60535 13.869 6.5953 13.2004 7.64828 12.6418C9.48972 11.7008 11.4935 11.1137 13.5543 10.9112C14.582 10.8247 15.5451 10.3776 16.2711 9.64998C17.8952 8.04452 19.7215 6.65442 21.7046 5.51426C25.0445 4.00001 28.601 3.01049 32.2468 2.58112C32.1187 5.98206 31.2203 9.31055 29.6186 12.3191V12.2898Z" fill="black"/>
<path d="M2.09663 27.0728C1.27621 28.98 0.585626 30.9399 0.029527 32.939C-0.00198516 33.0469 -0.0116859 33.1599 0.000986169 33.2715C0.0136582 33.3831 0.0484512 33.4911 0.103358 33.5892C0.158265 33.6874 0.2322 33.7738 0.320894 33.8434C0.409589 33.9131 0.511289 33.9646 0.620128 33.995C0.772039 34.0539 0.940696 34.0539 1.09261 33.995C3.45916 33.4037 5.7632 32.5885 7.97311 31.5605C8.60677 31.2971 9.16559 30.8832 9.60045 30.3551C10.0353 29.8269 10.3329 29.2008 10.467 28.5316C10.6012 27.8625 10.5678 27.1709 10.3698 26.5176C10.1718 25.8643 9.81524 25.2693 9.33149 24.7849C6.76238 22.2624 3.39595 24.3156 2.09663 27.0728Z" fill="black"/>
</g>
<defs>
<clipPath id="clip0_0_413">
<rect width="34.875" height="34.0244" fill="white"/>
</clipPath>
</defs>
</svg>
