<svg width="36" height="40" viewBox="0 0 36 40" fill="none" xmlns="http://www.w3.org/2000/svg">
<path d="M18.0757 40C17.0084 39.6969 15.9206 39.4545 14.8876 39.0707C12.0857 38.0838 9.53087 36.5178 7.39499 34.478C5.25911 32.4382 3.59165 29.9719 2.50474 27.2449C1.46555 24.7151 0.949221 22.0067 0.985963 19.2781C0.985963 14.8782 0.985963 10.4851 0.985963 6.09877C0.985963 5.42533 1.1228 5.2233 1.80693 5.0078C7.17055 3.35561 12.5319 1.70567 17.8909 0.0579696C18.1659 -0.0193232 18.4574 -0.0193232 18.7324 0.0579696C24.1234 1.71016 29.5075 3.37132 34.8848 5.04146C35.48 5.22329 35.6306 5.43206 35.6306 6.02469C35.6306 10.5233 35.6306 15.0219 35.6306 19.4936C35.6369 24.0725 34.1093 28.5256 31.2845 32.1634C28.4597 35.8012 24.4951 38.4207 20.0049 39.6161C19.5192 39.7508 19.0334 39.8653 18.5477 39.9865L18.0757 40ZM2.59368 6.40182C2.59368 6.52304 2.59368 6.62406 2.59368 6.72507C2.59368 11.0419 2.55948 15.3586 2.59368 19.6754C2.59621 21.0032 2.74764 22.3267 3.04522 23.6218C4.83765 30.9018 9.40767 35.69 16.6321 38.0066C17.4395 38.3352 18.3286 38.4173 19.184 38.2423C23.4194 37.1974 27.1795 34.7911 29.8686 31.4048C32.5577 28.0185 34.0221 23.8457 34.0297 19.5475C34.0297 15.2846 34.0297 11.0217 34.0297 6.75202C34.0395 6.69976 34.0385 6.64609 34.0268 6.59421C34.0152 6.54232 33.9931 6.49327 33.9618 6.44994C33.9306 6.40662 33.8908 6.3699 33.8449 6.34197C33.799 6.31405 33.7478 6.29546 33.6945 6.28734L18.6435 1.6675C18.4201 1.60353 18.1828 1.60353 17.9594 1.6675C14.6892 2.6642 11.4213 3.66988 8.1557 4.68453L2.59368 6.40182Z" fill="black"/>
<path d="M31.1837 14.7997C31.1837 16.4833 31.1837 18.1669 31.1837 19.8438C31.1418 22.368 30.4998 24.8474 29.3092 27.0833C29.2726 27.1924 29.2125 27.2923 29.133 27.3763C29.0535 27.4603 28.9564 27.5263 28.8485 27.5698C28.7406 27.6134 28.6243 27.6333 28.5078 27.6284C28.3913 27.6235 28.2772 27.5937 28.1735 27.5413C28.0714 27.4866 27.9824 27.411 27.9125 27.3197C27.8426 27.2284 27.7933 27.1233 27.768 27.0117C27.7428 26.9 27.7421 26.7844 27.766 26.6724C27.7899 26.5605 27.8379 26.4549 27.9067 26.3627C29.0593 24.1493 29.6419 21.691 29.6033 19.204C29.6033 16.1511 29.6033 13.1026 29.6033 10.0586C29.615 9.99398 29.6135 9.92766 29.5987 9.86361C29.584 9.79956 29.5563 9.73907 29.5174 9.68571C29.4785 9.63235 29.4291 9.5872 29.3722 9.55294C29.3153 9.51867 29.252 9.49598 29.186 9.48621C25.6627 8.41543 22.1463 7.32445 18.6298 6.24694C18.431 6.1895 18.2197 6.1895 18.0209 6.24694C14.484 7.32445 10.9538 8.42217 7.42368 9.49968C7.36102 9.50701 7.30054 9.5268 7.2459 9.55787C7.19126 9.58894 7.14361 9.63063 7.10585 9.6804C7.06809 9.73017 7.04101 9.78697 7.02626 9.84736C7.01151 9.90776 7.0094 9.97047 7.02005 10.0317C7.02005 13.3316 7.02005 16.6247 7.02005 19.9246C7.09429 23.0909 8.1973 26.1504 10.1673 28.6544C12.1373 31.1584 14.8706 32.9751 17.9662 33.838C18.1659 33.8884 18.3754 33.8884 18.5751 33.838C20.1986 33.3923 21.7311 32.6722 23.1041 31.7099L23.2614 31.6021C23.3468 31.5243 23.448 31.4652 23.5584 31.4288C23.6687 31.3923 23.7857 31.3794 23.9015 31.3909C24.0173 31.4024 24.1293 31.4379 24.2301 31.4953C24.3308 31.5526 24.4181 31.6303 24.486 31.7234C24.552 31.8147 24.5968 31.9192 24.6174 32.0294C24.6379 32.1397 24.6337 32.253 24.605 32.3615C24.5763 32.47 24.5239 32.5709 24.4513 32.6573C24.3787 32.7437 24.2878 32.8134 24.185 32.8615C23.27 33.4541 22.3222 33.9959 21.3458 34.4845C20.4743 34.8611 19.5784 35.1805 18.664 35.4408C18.4113 35.5114 18.1437 35.5114 17.8909 35.4408C11.2822 33.5013 7.18424 29.2384 5.70651 22.5915C5.49744 21.5581 5.39429 20.5068 5.39865 19.4532C5.3576 16.086 5.39865 12.6716 5.39865 9.28417C5.39865 8.61072 5.54916 8.43563 6.17172 8.24033C10.0302 7.04833 13.8888 5.8496 17.7541 4.67781C18.0918 4.58363 18.4495 4.58363 18.7872 4.67781C22.632 5.84062 26.4677 7.01915 30.2943 8.21339C31.0263 8.44237 31.1426 8.604 31.1426 9.36499V14.7997H31.1837Z" fill="black"/>
<path d="M16.851 18.6517L21.5715 14.0117C22.2557 13.3382 22.5362 13.3382 23.1861 14.0117L25.4916 16.2745C26.0116 16.7863 26.0116 17.1634 25.4916 17.6819L17.6036 25.4468C17.0631 25.9788 16.6937 25.9788 16.1464 25.4468L11.1522 20.5239C10.6186 20.0053 10.6117 19.6417 11.1522 19.1231L13.5603 16.7459C13.6382 16.6388 13.7409 16.5516 13.8599 16.4914C13.9789 16.4312 14.1107 16.3998 14.2445 16.3998C14.3782 16.3998 14.5101 16.4312 14.6291 16.4914C14.748 16.5516 14.8507 16.6388 14.9286 16.7459C15.5717 17.3924 16.2011 18.0254 16.851 18.6517ZM16.851 23.8507L23.8702 16.9479L22.3036 15.3922C22.2492 15.5193 22.1754 15.6374 22.0847 15.7424C20.616 17.2016 19.1383 18.6584 17.6515 20.1131C17.0836 20.6788 16.7279 20.672 16.1464 20.1131L14.3266 18.315L12.7804 19.837L16.851 23.8507Z" fill="black"/>
<path d="M27.2978 29.7704C27.2987 29.8714 27.2791 29.9717 27.2403 30.0652C27.2014 30.1588 27.144 30.2438 27.0714 30.3152C26.9988 30.3867 26.9124 30.4432 26.8174 30.4815C26.7224 30.5197 26.6205 30.539 26.5179 30.5381C26.4119 30.5372 26.3071 30.5158 26.2095 30.475C26.1119 30.4343 26.0234 30.375 25.949 30.3006C25.8747 30.2262 25.816 30.1381 25.7763 30.0413C25.7365 29.9446 25.7165 29.841 25.7174 29.7367C25.7296 29.5336 25.8198 29.3426 25.9697 29.2025C26.1196 29.0625 26.318 28.9838 26.5247 28.9824C26.7328 28.9877 26.9304 29.0733 27.0751 29.2207C27.2197 29.368 27.2997 29.5655 27.2978 29.7704Z" fill="black"/>
</svg>
