<svg width="40" height="40" viewBox="0 0 40 40" fill="none" xmlns="http://www.w3.org/2000/svg">
<g clip-path="url(#clip0_0_403)">
<path d="M35.2 15.9999C35.2 15.5756 35.0314 15.1686 34.7314 14.8685C34.4313 14.5685 34.0243 14.3999 33.6 14.3999C33.1757 14.3999 32.7687 14.5685 32.4686 14.8685C32.1686 15.1686 32 15.5756 32 15.9999V27.9999C32 28.4242 32.1686 28.8312 32.4686 29.1313C32.7687 29.4313 33.1757 29.5999 33.6 29.5999C34.0243 29.5999 34.4313 29.4313 34.7314 29.1313C35.0314 28.8312 35.2 28.4242 35.2 27.9999V15.9999Z" stroke="black" stroke-width="2" stroke-miterlimit="10"/>
<path d="M22.4 37.5999C22.8243 37.5999 23.2313 37.4313 23.5314 37.1313C23.8314 36.8312 24 36.4242 24 35.9999C24 35.5756 23.8314 35.1686 23.5314 34.8685C23.2313 34.5685 22.8243 34.3999 22.4 34.3999H18.4C17.9756 34.3999 17.5687 34.5685 17.2686 34.8685C16.9686 35.1686 16.8 35.5756 16.8 35.9999C16.8 36.4242 16.9686 36.8312 17.2686 37.1313C17.5687 37.4313 17.9756 37.5999 18.4 37.5999H22.4Z" stroke="black" stroke-width="2" stroke-miterlimit="10"/>
<path d="M6.39999 15.2001C6.39999 11.5932 7.83285 8.13394 10.3833 5.58345C12.9338 3.03295 16.393 1.6001 20 1.6001C23.6069 1.6001 27.0661 3.03295 29.6166 5.58345C32.1671 8.13394 33.6 11.5932 33.6 15.2001" stroke="black" stroke-width="2" stroke-miterlimit="10"/>
<path d="M35.2 16C37.408 16 39.2 18.68 39.2 22C39.2 25.32 37.408 28 35.2 28" stroke="black" stroke-width="2" stroke-miterlimit="10"/>
<path d="M4.8 15.9999C4.8 15.5756 4.96857 15.1686 5.26863 14.8685C5.56869 14.5685 5.97566 14.3999 6.4 14.3999C6.82435 14.3999 7.23132 14.5685 7.53138 14.8685C7.83143 15.1686 8 15.5756 8 15.9999V27.9999C8 28.4242 7.83143 28.8312 7.53138 29.1313C7.23132 29.4313 6.82435 29.5999 6.4 29.5999C5.97566 29.5999 5.56869 29.4313 5.26863 29.1313C4.96857 28.8312 4.8 28.4242 4.8 27.9999V15.9999Z" stroke="black" stroke-width="2" stroke-miterlimit="10"/>
<path d="M4.8 16C2.584 16 0.800003 18.68 0.800003 22C0.800003 25.32 2.584 28 4.8 28" stroke="black" stroke-width="2" stroke-miterlimit="10"/>
<path d="M33.6 29.6001C33.6 33.6001 31.2 36.0001 27.2 36.0001H24" stroke="black" stroke-width="2" stroke-miterlimit="10"/>
</g>
<defs>
<clipPath id="clip0_0_403">
<rect width="40" height="40" fill="white"/>
</clipPath>
</defs>
</svg>
