<svg width="57" height="58" viewBox="0 0 57 58" fill="none" xmlns="http://www.w3.org/2000/svg">
<path d="M10.5536 45.0537C9.87659 44.5456 9.5342 43.8193 9.22575 43.0627C8.84483 42.1262 8.43511 41.2014 7.97502 40.1251C7.56361 40.3393 7.18581 40.5589 6.78965 40.7377C6.17872 41.0131 5.56878 41.2889 4.93649 41.5108C4.33134 41.7233 3.66799 41.6971 3.08143 41.4377C2.49487 41.1783 2.02921 40.7052 1.7792 40.1146C1.52888 39.5254 1.50818 38.8638 1.72119 38.2601C1.9342 37.6564 2.36549 37.1543 2.93014 36.8527C3.11667 36.7518 3.31357 36.6654 3.50967 36.5809C12.1211 32.8739 20.7326 29.1707 29.3441 25.4713C29.7289 25.3064 29.7899 25.1302 29.7312 24.745C28.8256 18.8529 32.5874 13.1143 38.3389 11.5835C43.6647 10.1667 49.1003 12.4169 51.8143 17.2369C53.3357 19.9376 53.7404 22.8438 52.9755 25.8652C51.6341 31.1602 47.0734 34.8325 41.6539 34.8867C37.7608 34.925 34.5611 33.3747 32.1057 30.331L31.8762 30.0391L19.589 35.3284C20.0654 36.4331 20.562 37.5827 21.0562 38.7325C21.4862 39.731 21.4295 40.6754 20.7217 41.5357C19.6026 42.8995 17.3941 42.721 16.5746 41.1582C16.2143 40.4709 16.0206 39.6954 15.7647 38.992L13.4745 39.9772C13.714 40.5335 13.9926 41.1422 14.2419 41.7578C14.8764 43.3195 14.0936 44.9474 12.5185 45.3172C12.1675 45.3999 11.7929 45.3741 11.4271 45.4014L10.5536 45.0537ZM45.3322 13.2933C44.0456 12.7812 42.6701 12.5298 41.2855 12.5536C34.6941 12.7117 29.9337 18.6371 31.2041 25.095C31.3845 26.0081 31.3209 26.1303 30.4735 26.496L3.93122 37.9219C3.11105 38.2742 2.78322 38.8893 3.05929 39.5478C3.35073 40.24 3.99583 40.423 4.86328 40.0504C5.85696 39.6231 6.85157 39.1954 7.84711 38.7674C8.54052 38.4729 8.82105 38.5846 9.12143 39.2746C9.66604 40.5294 10.2079 41.7853 10.7469 43.0425C11.1062 43.8769 11.6976 44.1919 12.3756 43.9074C13.0535 43.623 13.2438 42.9623 12.8898 42.138C12.5866 41.4319 12.2772 40.7268 11.9772 40.0185C11.7139 39.3974 11.8446 39.0749 12.4726 38.8028C13.4533 38.3773 14.4349 37.9544 15.4173 37.5342C16.1187 37.2371 16.4062 37.3516 16.7161 38.0696C17.0261 38.7877 17.3463 39.5351 17.6618 40.2681C17.8503 40.7038 18.1549 40.9979 18.6471 41.044C19.563 41.1286 20.1752 40.2625 19.8061 39.3746C19.2639 38.0731 18.6933 36.7823 18.1364 35.4831C17.7945 34.689 17.8941 34.4359 18.6908 34.0904L31.4515 28.5989C32.2206 28.2678 32.3954 28.3178 32.8729 29C34.4566 31.2633 36.615 32.6792 39.2997 33.2592C44.7527 34.4469 50.2008 31.061 51.5943 25.6554C52.9114 20.5316 50.2246 15.2177 45.3322 13.2933Z" fill="black"/>
<path d="M33.8792 20.0566C35.5561 15.7515 40.567 13.6781 44.7399 15.5916C47.8718 17.0285 49.4497 19.5408 49.6008 22.9626C49.6298 23.6656 49.378 24.0056 48.8893 24C48.4419 23.9948 48.2247 23.6605 48.2092 22.9641C48.1609 20.9489 47.3958 19.2579 45.8799 17.9273C42.3703 14.8454 36.7976 16.263 35.1618 20.6444C33.9416 23.9122 35.3065 27.4172 38.4393 29.063C41.3443 30.5893 45.0743 29.6379 47.009 26.8678C47.2351 26.543 47.3999 26.1753 47.6018 25.8361C47.8581 25.4035 48.2377 25.2664 48.5945 25.4672C48.9513 25.6681 49.0476 26.0659 48.8312 26.5111C48.3644 27.4947 47.7055 28.375 46.8934 29.1003C46.0813 29.8255 45.1323 30.381 44.1024 30.7341C43.0724 31.0873 41.9822 31.2309 40.896 31.1565C39.8097 31.0821 38.7493 30.7912 37.7771 30.301C34.2203 28.5244 32.4736 24.3027 33.7294 20.5225C33.7846 20.3578 33.8347 20.1945 33.8792 20.0566Z" fill="black"/>
</svg>
