<svg width="41" height="42" viewBox="0 0 41 42" fill="none" xmlns="http://www.w3.org/2000/svg">
<path d="M14.4744 41.3484C11.8396 40.7951 9.42433 39.6193 6.89489 38.7548L6.52601 38.6424C6.52601 38.8326 6.47332 39.0055 6.4294 39.1784C6.34348 39.554 6.13269 39.8906 5.83041 40.1349C5.52813 40.3792 5.15166 40.5173 4.76068 40.5271C3.78579 40.5271 2.81089 40.5271 1.84478 40.5271C1.37892 40.5271 0.932128 40.3449 0.60271 40.0207C0.273291 39.6964 0.0882274 39.2566 0.0882274 38.798C0.0882274 37.2331 0.0882274 35.6683 0.0882274 34.1034C0.0882274 31.0602 0.0882274 28.0083 0.0882274 24.9651C0.0611685 24.6902 0.0961197 24.4127 0.190588 24.1526C0.285056 23.8925 0.436708 23.6562 0.634713 23.4604C0.832717 23.2647 1.07219 23.1144 1.33602 23.0203C1.59986 22.9262 1.88155 22.8906 2.16097 22.9161C2.94263 22.9593 3.7243 22.9161 4.50597 22.9161C4.76966 22.889 5.03618 22.919 5.28685 23.004C5.53751 23.0891 5.76625 23.227 5.95704 23.4082C6.14783 23.5894 6.29603 23.8095 6.39129 24.0531C6.48654 24.2966 6.52653 24.5578 6.50844 24.8181C6.50844 24.87 6.50844 24.9219 6.50844 25.017L8.265 25.1639C8.265 24.4031 8.2123 23.6683 8.265 22.9334C8.51142 20.3871 9.37265 17.9357 10.7769 15.7835C12.4105 13.2243 14.492 10.9704 16.9248 9.12643C17.0719 9.02267 17.1922 8.88648 17.2761 8.72875C16.8985 8.72875 16.512 8.77197 16.1344 8.83249C15.394 8.87371 14.6728 9.07949 14.0248 9.43436C13.3768 9.78924 12.8189 10.284 12.3929 10.8815C12.3542 10.9572 12.2988 11.0235 12.2308 11.0755C12.1628 11.1275 12.0838 11.164 11.9997 11.1822C11.9156 11.2004 11.8284 11.1999 11.7445 11.1808C11.6606 11.1617 11.5821 11.1244 11.5146 11.0717C11.4427 11.0287 11.3805 10.9717 11.3319 10.9041C11.2833 10.8365 11.2493 10.7598 11.232 10.6788C11.2148 10.5977 11.2145 10.514 11.2314 10.4329C11.2483 10.3518 11.2819 10.275 11.3302 10.2071C11.7973 9.46739 12.463 8.86903 13.2536 8.47802C14.3284 7.93675 15.5081 7.62729 16.7141 7.57024H17.3376C17.0763 7.20271 16.7331 6.89874 16.3343 6.68149C15.9356 6.46425 15.4917 6.33946 15.0365 6.31663C14.4657 6.31663 13.8948 6.31663 13.28 6.31663C12.3722 6.24909 11.4978 5.95123 10.7418 5.45207C10.3553 5.21 10.2411 4.89011 10.4256 4.58752C10.61 4.28492 10.9877 4.19847 11.3917 4.44054C12.2538 4.97747 13.2761 5.20924 14.29 5.09762C14.9177 5.01579 15.5562 5.07691 16.1561 5.27626C16.7561 5.47562 17.3015 5.80788 17.7504 6.24746C17.9436 6.42902 18.0666 6.39444 18.2159 6.24746C17.8734 5.63363 17.5133 5.03709 17.1971 4.41461C16.7466 3.67259 16.4761 2.83828 16.4066 1.97657C16.3923 1.60048 16.4612 1.22581 16.6087 0.878579C16.6551 0.749283 16.7303 0.631782 16.8286 0.534582C16.9269 0.437382 17.0459 0.36291 17.177 0.31657C17.3082 0.27023 17.4481 0.253173 17.5868 0.266638C17.7255 0.280103 17.8594 0.323759 17.9788 0.39443C18.2383 0.538459 18.5343 0.606057 18.8317 0.589197C19.1291 0.572338 19.4153 0.471728 19.6563 0.299328C19.9776 0.095413 20.3537 -0.00868349 20.7359 0.000567155C21.1181 0.0098178 21.4886 0.131986 21.7993 0.351199C22.0281 0.52161 22.3072 0.613827 22.5941 0.613827C22.8811 0.613827 23.1601 0.52161 23.389 0.351199C23.7188 0.125086 24.1112 0.00386517 24.5132 0.00386517C24.9151 0.00386517 25.3075 0.125086 25.6374 0.351199C25.8474 0.498957 26.095 0.58613 26.3526 0.60293C26.6101 0.619731 26.8673 0.565492 27.0953 0.446301C27.2532 0.344941 27.436 0.287504 27.6244 0.280081C27.8127 0.272658 27.9996 0.315529 28.1653 0.404139C28.3309 0.492749 28.4691 0.623802 28.5652 0.783424C28.6614 0.943047 28.7119 1.12529 28.7113 1.31086C28.8066 1.86702 28.7583 2.43784 28.5708 2.9708C28.079 4.17253 27.4642 5.33104 26.8582 6.576C27.1183 6.82301 27.3145 7.12767 27.4307 7.46456C27.5468 7.80145 27.5794 8.1608 27.5257 8.51261C27.5257 8.60771 27.6311 8.74603 27.7189 8.81519C28.3512 9.34257 29.0012 9.83537 29.616 10.3714C29.7124 10.432 29.7884 10.5194 29.8345 10.6224C29.8805 10.7255 29.8946 10.8397 29.8749 10.9506C29.8552 11.0615 29.8025 11.1643 29.7236 11.2458C29.6448 11.3273 29.5431 11.3841 29.4315 11.4089C29.315 11.4235 29.1966 11.415 29.0835 11.3838C28.9703 11.3526 28.8647 11.2994 28.7728 11.2273C28.1317 10.7432 27.5257 10.2244 26.9196 9.72298C25.5682 10.4136 24.0456 10.7133 22.5283 10.5875C21.3162 10.5875 20.113 10.3541 18.9097 10.2331C18.8261 10.2299 18.7445 10.2061 18.6726 10.1639C18.1281 9.76622 17.7943 10.0688 17.3376 10.4146C14.7472 12.4209 12.6012 14.9276 11.0316 17.7806C9.86361 19.9012 9.27924 22.2856 9.3365 24.6971C9.33916 24.9116 9.35973 25.1256 9.39799 25.3369C9.41268 25.3901 9.43922 25.4394 9.47568 25.4813C9.51213 25.5231 9.55761 25.5565 9.60878 25.5789C11.0396 25.9645 12.3978 26.5746 13.6313 27.3859C14.9345 28.0793 16.3839 28.4641 17.8646 28.5098C19.6212 28.7 21.3777 28.8556 23.1343 29.1323C24.0605 29.2583 24.9058 29.7197 25.5051 30.4263C26.1043 31.1329 26.4145 32.034 26.3751 32.9536V33.3772L26.7352 33.2562C29.0627 32.2447 31.3901 31.2418 33.7087 30.2216C33.9176 30.1294 34.0947 29.9791 34.2181 29.7893C35.5022 27.7698 36.0332 25.3737 35.72 23.0112C35.3248 19.3023 33.5155 16.2417 31.0563 13.5011C30.9589 13.4063 30.8679 13.3052 30.7841 13.1985C30.729 13.1371 30.6876 13.0651 30.6625 12.987C30.6374 12.909 30.6291 12.8266 30.6382 12.7452C30.6473 12.6638 30.6736 12.5852 30.7153 12.5144C30.7571 12.4435 30.8134 12.3821 30.8807 12.3339C30.9332 12.2793 30.9965 12.2357 31.0668 12.2059C31.137 12.1762 31.2126 12.1608 31.2891 12.1608C31.3655 12.1608 31.4412 12.1762 31.5114 12.2059C31.5816 12.2357 31.645 12.2793 31.6975 12.3339C31.9961 12.6279 32.2684 12.9478 32.5758 13.2677C34.6104 15.5625 36.0401 18.3148 36.7388 21.2821C37.3497 23.8338 37.119 26.5108 36.0801 28.9248C36.0801 28.9766 36.0801 29.0285 36.0362 29.0804V29.1495C36.3787 29.0026 36.7212 28.847 37.0725 28.7173C37.423 28.5584 37.8055 28.4798 38.1913 28.4872C38.5771 28.4946 38.9561 28.5879 39.3001 28.7601C39.644 28.9322 39.9438 29.1788 40.1771 29.4814C40.4104 29.7839 40.5711 30.1345 40.6471 30.5069C40.7677 31.0161 40.7252 31.5496 40.5255 32.0341C40.3257 32.5186 39.9786 32.9304 39.5317 33.213C35.8137 35.5184 32.1044 37.8239 28.4039 40.1294C27.4394 40.7517 26.3427 41.148 25.1982 41.2879C25.1308 41.3019 25.0658 41.3251 25.005 41.3571L14.4744 41.3484ZM6.44697 26.3138V27.7749C6.44697 28.3196 6.23618 28.6395 5.84096 28.6395C5.44573 28.6395 5.21739 28.3628 5.21739 27.7749C5.21739 26.7893 5.21739 25.8124 5.21739 24.8268C5.21739 24.3599 5.01538 24.1611 4.54111 24.1524H1.95897C1.49348 24.1524 1.28269 24.3426 1.28269 24.7835V38.7288C1.28269 39.187 1.47591 39.3599 1.9414 39.3599H4.48841C5.04173 39.3599 5.21738 39.187 5.22616 38.6337V30.9478C5.22616 30.5069 5.45451 30.2302 5.81461 30.2216C6.1747 30.213 6.43818 30.4983 6.45575 30.9565V31.285C6.45575 33.1957 6.45575 35.1063 6.45575 37.0257C6.44253 37.1294 6.46957 37.2342 6.53144 37.3191C6.59331 37.4041 6.68547 37.4629 6.7895 37.4839C8.85345 38.2274 10.8998 39.0228 12.9814 39.7317C13.7165 39.9831 14.4869 40.1202 15.2649 40.1381C18.2774 40.1899 21.2899 40.1381 24.3024 40.1381C25.4859 40.142 26.6463 39.8152 27.6486 39.1957L38.9521 32.1496C39.2181 31.9792 39.4143 31.7217 39.5059 31.4227C39.5975 31.1236 39.5787 30.8022 39.4527 30.5155C39.3481 30.2172 39.1316 29.9694 38.8475 29.8232C38.5633 29.6769 38.2331 29.6431 37.9245 29.7288C37.6623 29.796 37.4067 29.8857 37.1604 29.9968C33.5477 31.5645 29.9409 33.1236 26.34 34.6741C26.08 34.7875 25.7988 34.8464 25.5144 34.847C23.389 34.847 21.2723 34.847 19.1469 34.847C18.9842 34.8518 18.8216 34.8343 18.6638 34.7951C18.5287 34.7584 18.4123 34.6734 18.3375 34.5566C18.2628 34.4399 18.2351 34.2998 18.2598 34.164C18.2637 34.0343 18.316 33.9105 18.4068 33.8164C18.4975 33.7223 18.6203 33.6645 18.7517 33.6539C18.8889 33.6408 19.0272 33.6408 19.1644 33.6539H24.7503H25.2334C25.2334 33.3513 25.2334 33.0833 25.2334 32.7893C25.2399 32.1613 25.0148 31.5522 24.5997 31.0752C24.1845 30.5982 23.6077 30.2857 22.9762 30.1957C21.2723 29.9795 19.5597 29.7634 17.8382 29.6164C16.056 29.5435 14.3191 29.0419 12.7794 28.1553C12.3227 27.8787 11.8484 27.6452 11.3741 27.4031C9.84773 26.6467 8.15537 26.2725 6.44697 26.3138ZM27.7101 1.6221L27.5871 1.51835C27.1783 1.72708 26.7158 1.81217 26.258 1.76295C25.8001 1.71372 25.3672 1.53237 25.0138 1.24169C24.837 1.14744 24.6349 1.10931 24.4352 1.13253C24.2355 1.15574 24.048 1.23916 23.8984 1.37137C23.5416 1.61647 23.117 1.7479 22.682 1.7479C22.2469 1.7479 21.8223 1.61647 21.4655 1.37137C21.2539 1.21152 20.9946 1.12489 20.7278 1.12489C20.461 1.12489 20.2017 1.21152 19.99 1.37137C19.7385 1.54737 19.4488 1.66323 19.1439 1.70976C18.839 1.75628 18.5273 1.73219 18.2335 1.63939L17.6011 1.42325C17.6261 1.77651 17.697 2.12516 17.8119 2.46072C18.3213 3.51548 18.8834 4.54429 19.4104 5.5904C19.4788 5.712 19.576 5.81556 19.6937 5.89232C19.8114 5.96907 19.9462 6.01676 20.0866 6.03132C21.8593 6.39817 23.695 6.34782 25.4441 5.88435C25.5599 5.85529 25.6603 5.78427 25.7252 5.68551C26.2522 4.75179 26.8055 3.81806 27.2885 2.85841C27.4683 2.44539 27.6094 2.01711 27.7101 1.57887V1.6221ZM22.4404 9.4031C23.5207 9.23883 24.6273 9.09185 25.7164 8.88436C25.8313 8.85206 25.9384 8.79701 26.0309 8.72259C26.1235 8.64816 26.1996 8.55592 26.2547 8.45152C26.3098 8.34711 26.3427 8.23274 26.3513 8.11539C26.3599 7.99805 26.3441 7.88021 26.3049 7.76909C26.2797 7.66792 26.2337 7.5729 26.1698 7.48993C26.1058 7.40696 26.0252 7.33781 25.933 7.28675C25.8408 7.23569 25.7389 7.20381 25.6337 7.19308C25.5284 7.18236 25.4221 7.19303 25.3212 7.22441C24.495 7.40313 23.6545 7.51017 22.8093 7.5443C21.6763 7.5443 20.5346 7.3368 19.4016 7.20712C19.2146 7.16953 19.0201 7.20303 18.8571 7.30086C18.6942 7.3987 18.5749 7.55363 18.5233 7.7345C18.4725 7.85601 18.4505 7.98731 18.459 8.11844C18.4675 8.24957 18.5062 8.37707 18.5723 8.49125C18.6383 8.60543 18.7299 8.7033 18.8401 8.77741C18.9504 8.85152 19.0763 8.89993 19.2084 8.91895C20.2799 9.07457 21.3514 9.20424 22.4668 9.36851L22.4404 9.4031Z" fill="black"/>
<path d="M21.9837 24.6624V24.0918C21.9837 22.8123 21.9837 21.4982 21.9837 20.2532C21.9991 20.1351 21.9714 20.0155 21.9054 19.9157C21.8394 19.8159 21.7395 19.7425 21.6236 19.7085C21.3199 19.5871 21.0262 19.4426 20.7453 19.2763C20.2642 19.0361 19.874 18.6504 19.6321 18.1757C19.3902 17.7011 19.3094 17.1626 19.4016 16.6394C19.447 16.0899 19.6527 15.5651 19.9939 15.128C20.3351 14.6909 20.7974 14.3601 21.325 14.1754C21.5094 14.1062 21.7114 14.0544 21.931 13.9938C21.931 13.6999 21.931 13.4146 21.931 13.1293C21.9275 13.0479 21.9404 12.9667 21.9691 12.8904C21.9977 12.814 22.0415 12.744 22.0979 12.6845C22.1543 12.625 22.2222 12.5771 22.2976 12.5436C22.373 12.5101 22.4543 12.4917 22.537 12.4895C22.6197 12.4906 22.7012 12.5079 22.7771 12.5403C22.8529 12.5728 22.9214 12.6197 22.9786 12.6784C23.0358 12.7372 23.0806 12.8065 23.1103 12.8824C23.14 12.9583 23.1541 13.0393 23.1518 13.1206C23.1518 13.3886 23.1518 13.6567 23.1518 13.8209C23.8193 14.1235 24.4341 14.3742 25.005 14.6855C25.101 14.7549 25.1816 14.8428 25.242 14.9439C25.3024 15.045 25.3413 15.157 25.3563 15.2734C25.3563 15.7575 24.8293 15.9823 24.3726 15.7143C23.9159 15.4463 23.6173 15.3253 23.1518 15.0918C23.1518 16.4405 23.1518 17.6855 23.1518 18.8613C23.1635 18.9133 23.1869 18.9621 23.2203 19.0041C23.2538 19.046 23.2964 19.0799 23.345 19.1034C23.516 19.1903 23.6955 19.2598 23.8808 19.3108C24.5592 19.5036 25.1511 19.9173 25.5595 20.4843C25.968 21.0513 26.1688 21.7379 26.1292 22.4319C26.1069 23.1704 25.8512 23.8837 25.3979 24.4725C24.9445 25.0613 24.316 25.4964 23.5997 25.7172L23.143 25.8382C23.143 26.1581 23.143 26.4607 23.143 26.772C23.1505 26.8572 23.1396 26.943 23.1109 27.0237C23.0823 27.1044 23.0366 27.1783 22.9768 27.2404C22.9171 27.3025 22.8446 27.3514 22.7643 27.3839C22.6839 27.4164 22.5975 27.4318 22.5107 27.429C22.1506 27.429 21.9222 27.1783 21.9134 26.7547C21.9134 26.4867 21.9134 26.2187 21.9134 25.9506C21.9134 25.9506 21.9134 25.9506 21.8695 25.8815C21.0288 25.8381 20.2143 25.5788 19.5069 25.1293C19.0678 24.844 18.9361 24.5328 19.1469 24.1956C19.3576 23.8584 19.709 23.8238 20.1481 24.0918C20.6874 24.4602 21.3273 24.6591 21.9837 24.6624ZM23.2309 20.4088V24.5846C23.7384 24.4662 24.1895 24.1804 24.5091 23.7746C24.8286 23.3687 24.9975 22.8675 24.9874 22.3541C25.0011 21.8749 24.8305 21.4082 24.5097 21.0476C24.1889 20.6869 23.7416 20.4588 23.2572 20.4088H23.2309ZM21.9573 15.3252C21.5997 15.399 21.2777 15.5893 21.0434 15.8654C20.8092 16.1415 20.6763 16.4873 20.6663 16.8469C20.6241 17.2281 20.7358 17.6103 20.9773 17.9111C21.2188 18.212 21.5708 18.4073 21.9573 18.4549V15.3252Z" fill="black"/>
</svg>
